<svg id="Layer_1" viewBox="0 0 512 512" xmlns="http://www.w3.org/2000/svg"><path d="M316.69,251.88a4.78,4.78,0,0,0,4.76-5.08l-2.63-40c28-16.12,44.64-42.23,44.64-70.36,0-47.42-47.2-86-105.2-86s-105.2,38.59-105.2,86,47.19,86,105.2,86A129.14,129.14,0,0,0,278,221l35.66,29.81A4.78,4.78,0,0,0,316.69,251.88Zm-5.49-15.57-28.79-24.06a4.72,4.72,0,0,0-3.06-1.11,5.52,5.52,0,0,0-.81.06,118.8,118.8,0,0,1-20.28,1.73c-52.75,0-95.67-34.3-95.67-76.47S205.51,60,258.26,60s95.66,34.3,95.66,76.47c0,25.46-15.82,49.19-42.32,63.46a4.79,4.79,0,0,0-2.5,4.51Z" style="fill:#231f20"></path><path d="M318.63,107.74a4.78,4.78,0,0,0-4.77-4.77H202.65a4.77,4.77,0,1,0,0,9.53H313.86A4.77,4.77,0,0,0,318.63,107.74Z" style="fill:#231f20"></path><path d="M301.24,131.69h-86a4.77,4.77,0,0,0,0,9.54h86a4.77,4.77,0,0,0,0-9.54Z" style="fill:#231f20"></path><path d="M285.47,160.42H231.05a4.77,4.77,0,1,0,0,9.53h54.42a4.77,4.77,0,0,0,0-9.53Z" style="fill:#231f20"></path><path d="M148.58,318.1a56,56,0,1,0-53.24,0,76.61,76.61,0,0,0-56,73.67v65a4.77,4.77,0,0,0,9.54,0v-65a67,67,0,0,1,66.94-66.94h12.22A67,67,0,0,1,195,391.77v65a4.77,4.77,0,0,0,9.54,0v-65A76.61,76.61,0,0,0,148.58,318.1ZM75.46,268.8A46.5,46.5,0,1,1,122,315.3,46.55,46.55,0,0,1,75.46,268.8Z" style="fill:#231f20"></path><path d="M81,387.34a4.76,4.76,0,0,0-4.77,4.77v64.67a4.77,4.77,0,1,0,9.53,0V392.11A4.76,4.76,0,0,0,81,387.34Z" style="fill:#231f20"></path><path d="M163,387.34a4.76,4.76,0,0,0-4.77,4.77v64.67a4.77,4.77,0,1,0,9.53,0V392.11A4.76,4.76,0,0,0,163,387.34Z" style="fill:#231f20"></path><path d="M416.66,318.1a56,56,0,1,0-53.24,0,76.61,76.61,0,0,0-56,73.67v65a4.77,4.77,0,1,0,9.54,0v-65a67,67,0,0,1,66.94-66.94h12.22a67,67,0,0,1,66.94,66.94v65a4.77,4.77,0,0,0,9.54,0v-65A76.61,76.61,0,0,0,416.66,318.1Zm-73.12-49.3A46.5,46.5,0,1,1,390,315.3,46.55,46.55,0,0,1,343.54,268.8Z" style="fill:#231f20"></path><path d="M349,387.34a4.76,4.76,0,0,0-4.76,4.77v64.67a4.77,4.77,0,1,0,9.53,0V392.11A4.76,4.76,0,0,0,349,387.34Z" style="fill:#231f20"></path><path d="M431.05,387.34a4.76,4.76,0,0,0-4.76,4.77v64.67a4.77,4.77,0,1,0,9.53,0V392.11A4.76,4.76,0,0,0,431.05,387.34Z" style="fill:#231f20"></path></svg>