<svg id="Capa_1" style="enable-background:new 76 -76 512 512;" version="1.1" viewBox="76 -76 512 512" xml:space="preserve" xmlns="http://www.w3.org/2000/svg" xmlns:xlink="http://www.w3.org/1999/xlink"><style type="text/css">
	.st0{fill:#2D2D2D;}
</style><g><path class="st0" d="M377.6-71c2.8,0.3,5.6,0.4,8.3,1c23.3,4.7,38.6,18.4,45.9,41.1c1.6,5.1,2.2,10.5,2.2,15.8   c0,35.2,0,70.5,0,105.7c0,27.1-19.8,51.1-46.4,56.2c-3.7,0.7-7.6,1.1-11.4,1.1c-34.2,0.1-68.5,0.1-102.7,0c-1.2,0-1.7,0.4-2.2,1.4   c-3.9,8.8-7.9,17.6-11.8,26.5c-3.3,7.5-11.4,7.9-15.6,4.9c-1.8-1.3-3.1-3.1-4-5.1c-3.9-8.8-7.9-17.7-11.8-26.5   c-0.4-0.9-0.8-1.2-1.8-1.2c-5.4,0.1-10.7,0.1-16.1,0.1c-6.9,0-13.7-0.5-20.4-2.5c-17.9-5.3-36.5-22.5-39.8-45.8   c-0.5-3.2-0.8-6.4-0.8-9.7c-0.1-35.2,0-70.3-0.1-105.5c-0.1-30.4,22.9-51.2,43.8-56c2.8-0.6,5.8-0.9,8.6-1.4   c0.4-0.1,0.8-0.1,1.2-0.2C261.1-71,319.4-71,377.6-71z M428,39.4c0-17.5,0.1-35,0-52.6c0-3.3-0.3-6.7-1-10   c-4.8-24.3-26.1-41.7-50.9-41.8c-41.1,0-82.2-0.1-123.3-0.1c-15.5,0-31-0.1-46.6,0c-3.3,0-6.6,0.4-9.8,1   c-20,3.7-41.2,23.1-41.2,50.5c0.1,35.2,0,70.4,0.1,105.6c0,3.7,0.4,7.4,1.1,10.9c2.1,10.6,7.4,19.5,15.3,26.8   c6.4,6,13.7,10.2,22.2,12.4c5.3,1.4,10.7,1.6,16.1,1.6c6.6,0,13.2,0,19.8-0.1c1.3,0,2,0.4,2.6,1.7c4.2,9.5,8.4,18.9,12.6,28.4   c0.4,1,0.9,2,1.5,2.8c1,1.5,2.8,2,4.6,1.5c1.6-0.4,2.4-1.6,3-3c4.3-9.7,8.7-19.4,12.9-29.1c0.7-1.7,1.6-2.3,3.4-2.3   c35.4,0,70.8,0,106.2,0c2.9,0,5.8-0.3,8.7-0.7c24.4-4.1,42.7-25.9,42.7-50.6C428,74.8,428,57.1,428,39.4z"></path><path class="st0" d="M225.3,39.2c0.1-38,31.2-67.3,67.8-66.6c35.3,0.7,65.2,29.8,65,66.8c-0.2,35.9-29.3,66-66.5,66   C255,105.4,225.3,75.8,225.3,39.2z M231.3,39.2c0,33.1,27,60.2,60.1,60.2c33.4,0,60.5-26.9,60.6-60c0.1-33.5-26.9-60.2-59.3-60.7   C259.3-21.8,231.4,5.1,231.3,39.2z"></path></g><path class="st0" d="M571.8,224.8c-1.4-9.6-6.4-16.7-15.4-20.4c-9-3.7-17.5-2.2-25.1,3.8c-2.4,1.9-4.7,3.9-7,5.8  c-0.2,0.2-0.5,0.3-0.7,0.5c-0.3-2.2-0.4-4.4-0.8-6.5c-3.1-15.7-20.2-24.5-34.7-17.9c-3.7,1.7-6.7,4.3-9.8,6.9  c-2.2,1.8-4.3,3.6-6.5,5.5c-0.3-2-0.3-4-0.7-5.9c-4.1-18.4-26-25.9-40.5-13.8c-4.4,3.7-8.7,7.4-13.1,11.1  c-15.1,12.8-30.3,25.7-45.5,38.5c-0.3,0.2-0.8,0.4-1.1,0.3c-4.3-1.7-8.9-2.2-13.5-2.2c-19.9,0-39.8,0.1-59.7,0.1  c-14,0-28.1,0-42.1,0c-7.2,0-14.3,0.7-21.3,2c-23.1,4.3-43.2,14.6-60.3,30.7c-0.1,0.1-0.3,0.2-0.4,0.4c-0.1,0.1-4.4,3.5-9.6,10.3  c-0.1,0.1-0.2,0.2-0.3,0.4c-7.4,8.9-13.2,18.8-17.8,29.4c-0.6,1.3-1.3,2.6-2.2,3.7c-14.6,18.5-29.2,36.9-43.8,55.4  c-3,3.8-6.5,7.2-7.4,12.3v3.8c0.8,1.8,1.3,3.8,2.4,5.5c1.8,2.8,4.6,4.5,7.7,5.5c33.8,10.8,67.6,21.7,101.4,32.5  c8.4,2.7,16.8,5.4,25.2,8.1c1.4,0.5,3,0.7,4.4,1h2.2c4.2-0.6,7.4-2.8,10.1-6c14.5-17.5,29.1-34.9,43.7-52.3c0.3-0.3,0.8-0.6,1.3-0.7  c11.1-1.4,22.3-2.7,33.4-4.1c12.9-1.5,25.8-3.1,38.7-4.6c16.1-2,32.3-3.9,48.4-5.9c15.2-1.9,28.9-7.6,40.7-17.3  c13.7-11.3,27.2-23,40.8-34.5c23.4-19.8,46.8-39.7,70.2-59.5c4-3.4,6.8-7.6,8.1-12.8c0.4-1.6,0.6-3.3,1-4.9v-3.1  C571.9,225.5,571.8,225.2,571.8,224.8z M470,212.1c5.2-4.4,10.4-8.8,15.5-13.2c3.6-3,7.6-4.9,12.3-4.9c9.6,0,17.6,6.8,19.1,16.3  c0.7,4.2,0.1,8.1-1.9,11.8c-0.6,1.1-1.4,2.2-2.3,3c-16.9,14.4-33.8,28.7-50.7,43.1c-3.9,3.3-8.4,4.7-13.4,4.6c-15.3,0-30.6,0-45.9,0  c-0.4,0-0.7,0-1.4-0.1c2.5-2.1,4.7-4,6.9-5.9c17.9-15.2,35.9-30.4,53.8-45.6c2.6-2.2,5-4.7,6.6-7.8  C469.1,212.9,469.6,212.5,470,212.1z M383.7,230.5c16.7-14.2,33.5-28.4,50.2-42.6c7.6-6.5,18-6.5,25.4-0.1c8.4,7.4,8.3,20.8-0.2,28  c-14.6,12.4-29.2,24.7-43.8,37.1c-6.8,5.7-13.6,11.5-20.3,17.3c-1.8,1.5-3.6,2.5-6,2.4c-0.7-0.1-1.4,0-2.2,0  c4.8-14.3,1.6-26.4-10.4-35.9C378.8,234.7,381.3,232.6,383.7,230.5z M182.6,263.7c16-13.6,34.4-22.2,55.2-25.4  c5.9-0.9,11.9-1.4,17.8-1.5c14-0.2,27.9-0.1,41.9-0.1c20.5,0,41,0,61.4,0c3.8,0,7.4,0.7,10.8,2.3c0.6,0.3,1,0.8,1.5,1.3  c0.7,0.6,1.3,1.3,2,1.9c2.9,2.3,5.3,4.8,6.8,7.7c0,0,0.1,0.1,0.2,0.4c0.1,0.1,0.1,0.3,0.2,0.4c0.1,0.2,0.2,0.5,0.4,0.8  c0.2,0.3,0.3,0.7,0.4,1c0.1,0.2,0.2,0.5,0.3,0.7c0,0,0,0.1,0,0.1c1.7,4.5,3.5,12.8-1.3,20.8c0,0,0,0,0,0c-0.3,0.6-0.7,1.1-1.1,1.6  c-4.6,5.9-10.6,9.1-18,9.7c-1.4,0.1-2.9,0.1-4.3,0.1c-42.9,0-85.8,0-128.6,0c-3.6,0-6.9-1.2-10.3-2.2c-13.6-4.1-27.1-8.2-40.7-12.3  c-0.5-0.2-1.1-0.3-2-0.5C177.9,267.9,180.2,265.7,182.6,263.7z M559.7,241.5c-8.2,7.2-16.6,14.2-24.9,21.2  c-19.7,16.7-39.5,33.5-59.2,50.2c-9.2,7.8-18.3,15.7-27.6,23.3c-11.4,9.3-24.5,14.4-39.1,16c-10.2,1.1-20.4,2.5-30.6,3.7  c-9.6,1.2-19.2,2.3-28.8,3.5c-8.9,1.1-17.8,2.2-26.8,3.3c-9,1.1-17.9,2.1-26.9,3.2c-2.4,0.3-4.8,0.6-7.1,0.9  c-1.2,0.1-2.1,0.7-2.8,1.6c-9,10.8-18,21.6-27,32.5c-5.9,7.1-11.8,14.2-17.8,21.2c-3,3.5-5.5,4.2-9.9,2.8  c-32-10.3-64-20.5-95.9-30.7c-10.2-3.3-20.4-6.5-30.6-9.8c-3.9-1.3-6.1-4-6-7.5c0.1-1.9,0.9-3.5,2-5c7.1-8.9,14.2-17.8,21.2-26.8  c9-11.4,18.1-22.8,27-34.3c1.2-1.6,2.1-3.5,2.9-5.3c4.8-10.7,10.8-20.7,18.6-29.5c0.3-0.4,0.3-0.4,0.7-0.7l0.3,0.1  c2.9,0.9,5.7,1.9,8.6,2.7c13.9,4.2,27.7,8.4,41.6,12.5c1.9,0.5,3.8,0.9,5.8,0.9c43.8,0,87.6,0.1,131.4,0c10.4,0,19-3.9,25.3-12.3  c0.1-0.1,0.2-0.2,0.3-0.3l18.3,0.1h0.5l1.9,0l0,0c14.8,0,29.5,0,44.2,0c6.8,0,12.6-2.3,17.8-6.7c16.7-14.2,33.4-28.4,50.1-42.6  c1.2-1,2.1-2.4,3.1-3.6c0.3-0.3,0.5-0.7,0.8-1c4.8-4,9.4-8.2,14.3-12c5.8-4.6,12.3-5.7,19.1-2.8c6.8,2.9,10.7,8.3,11.4,15.6  C566.4,232,564.4,237.4,559.7,241.5z"></path></svg>