<svg id="Layer_1" viewBox="0 0 512 512" xmlns="http://www.w3.org/2000/svg"><path d="M183.79,191.16l-14.32,38a4.77,4.77,0,0,0,4.46,6.45,4.69,4.69,0,0,0,1.8-.35l56.92-23.21a179,179,0,0,0,40.41,4.54c69.24,0,125.57-38.65,125.57-86.16S342.3,44.31,273.06,44.31,147.49,83,147.49,130.46C147.49,153.54,160.35,175,183.79,191.16ZM273.06,53.84c64,0,116,34.37,116,76.62s-52.05,76.63-116,76.63a169.08,169.08,0,0,1-39.68-4.63,4.79,4.79,0,0,0-2.92.22l-48.22,19.66L194.05,191a4.77,4.77,0,0,0-1.88-5.68C169.51,170.69,157,151.22,157,130.46,157,88.21,209.08,53.84,273.06,53.84Z" style="fill:#231f20"></path><path d="M212.32,116.12H333.81a4.77,4.77,0,0,0,0-9.53H212.32a4.77,4.77,0,1,0,0,9.53Z" style="fill:#231f20"></path><path d="M321.52,144.81H224.61a4.77,4.77,0,1,0,0,9.53h96.91a4.77,4.77,0,1,0,0-9.53Z" style="fill:#231f20"></path><path d="M442.44,320.84a54.61,54.61,0,1,0-48.06,0,61.79,61.79,0,0,0-32.93,29l-30.88,58.43a9,9,0,0,1-8,4.8H249.8a4.91,4.91,0,0,0-1.16.15c-.93-.09-1.87-.15-2.82-.15H189.4a9,9,0,0,1-8-4.8l-30.88-58.43a61.79,61.79,0,0,0-32.93-29,54.59,54.59,0,1,0-48.06,0A52.42,52.42,0,0,0,37.1,369.26v93.67a4.77,4.77,0,0,0,9.53,0V369.26a42.87,42.87,0,0,1,42.83-42.83h6.36a52.24,52.24,0,0,1,46.3,27.9L173,412.76a18.51,18.51,0,0,0,16.4,9.89h56.42a17.76,17.76,0,0,1,0,35.51h-81.3A15.87,15.87,0,0,1,151,450.55l-38.54-63.8a4.77,4.77,0,0,0-8.16,4.93l38.54,63.8a25.45,25.45,0,0,0,21.65,12.21h81.3c1,0,1.89-.05,2.82-.14a4.91,4.91,0,0,0,1.16.14h97.68a25.45,25.45,0,0,0,21.65-12.21l38.54-63.8a4.77,4.77,0,0,0-8.16-4.93L361,450.55a15.87,15.87,0,0,1-13.49,7.61H266.35a27.65,27.65,0,0,0,6.53-18,26.93,26.93,0,0,0-6.47-17.53H322.6a18.51,18.51,0,0,0,16.4-9.89l30.88-58.43a52.24,52.24,0,0,1,46.3-27.9h6.36a42.87,42.87,0,0,1,42.83,42.83v93.67a4.77,4.77,0,0,0,9.53,0V369.26A52.42,52.42,0,0,0,442.44,320.84Zm-393.89-49A45.06,45.06,0,1,1,93.61,316.9,45.11,45.11,0,0,1,48.55,271.83Zm324.78,0a45.06,45.06,0,1,1,45.06,45.07A45.11,45.11,0,0,1,373.33,271.83Z" style="fill:#231f20"></path></svg>